<svg xmlns="http://www.w3.org/2000/svg" width="32" height="32" viewBox="0 0 100 100">
  <defs>
    <linearGradient id="bg" x1="0" y1="0" x2="100" y2="100" gradientUnits="userSpaceOnUse">
      <stop offset="0%" stop-color="#0F2044"/>
      <stop offset="100%" stop-color="#0A1628"/>
    </linearGradient>
    <linearGradient id="gold" x1="50" y1="20" x2="50" y2="85" gradientUnits="userSpaceOnUse">
      <stop offset="0%"   stop-color="#FFF7AE"/>
      <stop offset="30%"  stop-color="#FBBF24"/>
      <stop offset="75%"  stop-color="#D97706"/>
      <stop offset="100%" stop-color="#B45309"/>
    </linearGradient>
    <radialGradient id="glow" cx="50%" cy="55%" r="38%">
      <stop offset="0%"   stop-color="#FBBF24" stop-opacity="0.22"/>
      <stop offset="100%" stop-color="#FBBF24" stop-opacity="0"/>
    </radialGradient>
    <linearGradient id="ray" x1="0" y1="1" x2="0" y2="0" gradientUnits="objectBoundingBox">
      <stop offset="0%"   stop-color="#FFF7AE" stop-opacity="0.45"/>
      <stop offset="100%" stop-color="#FFF7AE" stop-opacity="0"/>
    </linearGradient>
    <clipPath id="clip">
      <rect width="100" height="100" rx="22"/>
    </clipPath>
  </defs>
  <rect width="100" height="100" rx="22" fill="url(#bg)"/>
  <g clip-path="url(#clip)">
    <ellipse cx="50" cy="60" rx="30" ry="28" fill="url(#glow)"/>
    <polygon points="50,22 47.5,6 52.5,6" fill="url(#ray)" opacity="0.8"/>
    <polygon points="43,26 38,10 41,11" fill="url(#ray)" opacity="0.5"/>
    <polygon points="57,26 59,10 62,11" fill="url(#ray)" opacity="0.5"/>
    <path d="M50,85 C46,85 40,83 37,80 C34,77 32,72 32,68 L32,58 C32,55 33,53 35,53 C35,48 35,44 35,44 C35,41 36.5,40 38,40 C38,37 38,33 38,30 C38,27 39.5,26 41,26 C41,23 41.5,22 43,22 C44.5,22 45,23 45,26 L45,40 C46,40 47,41 47,44 L47,40 C47,37 48,36 49.5,36 C51,36 51.5,37 51.5,40 L51.5,44 C51.5,41 52.5,40 54,40 L50,85 Z" fill="url(#gold)"/>
    <path d="M50,85 C54,85 60,83 63,80 C66,77 68,72 68,68 L68,58 C68,55 67,53 65,53 C65,48 65,44 65,44 C65,41 63.5,40 62,40 C62,37 62,33 62,30 C62,27 60.5,26 59,26 C59,23 58.5,22 57,22 C55.5,22 55,23 55,26 L55,40 C54,40 53,41 53,44 L53,40 C53,37 52,36 50.5,36 C49,36 48.5,37 48.5,40 L48.5,44 C48.5,41 47.5,40 46,40 L50,85 Z" fill="url(#gold)"/>
    <line x1="41" y1="26" x2="41" y2="53" stroke="#92400E" stroke-width="0.8" stroke-opacity="0.35"/>
    <line x1="45" y1="26" x2="45" y2="53" stroke="#92400E" stroke-width="0.8" stroke-opacity="0.35"/>
    <line x1="59" y1="26" x2="59" y2="53" stroke="#92400E" stroke-width="0.8" stroke-opacity="0.35"/>
    <line x1="55" y1="26" x2="55" y2="53" stroke="#92400E" stroke-width="0.8" stroke-opacity="0.35"/>
    <line x1="50" y1="22" x2="50" y2="85" stroke="#92400E" stroke-width="0.6" stroke-opacity="0.25"/>
  </g>
</svg>
