<svg xmlns="http://www.w3.org/2000/svg" width="32" height="32" viewBox="0 0 100 100">
  <defs>
    <linearGradient id="bg" x1="0" y1="0" x2="0" y2="100" gradientUnits="userSpaceOnUse">
      <stop offset="0%"  stop-color="#1B4332"/>
      <stop offset="100%" stop-color="#0F2D1F"/>
    </linearGradient>
    <linearGradient id="lp" x1="14" y1="0" x2="50" y2="0" gradientUnits="userSpaceOnUse">
      <stop offset="0%"   stop-color="#B45309"/>
      <stop offset="50%"  stop-color="#FCD34D"/>
      <stop offset="100%" stop-color="#FEF9EE"/>
    </linearGradient>
    <linearGradient id="rp" x1="50" y1="0" x2="86" y2="0" gradientUnits="userSpaceOnUse">
      <stop offset="0%"   stop-color="#FEF9EE"/>
      <stop offset="50%"  stop-color="#FCD34D"/>
      <stop offset="100%" stop-color="#B45309"/>
    </linearGradient>
    <linearGradient id="fl" x1="50" y1="22" x2="50" y2="66" gradientUnits="userSpaceOnUse">
      <stop offset="0%"   stop-color="#EF4444"/>
      <stop offset="50%"  stop-color="#F97316"/>
      <stop offset="100%" stop-color="#FBBF24"/>
    </linearGradient>
    <clipPath id="c"><rect width="100" height="100" rx="22"/></clipPath>
  </defs>
  <rect width="100" height="100" rx="22" fill="url(#bg)"/>
  <g clip-path="url(#c)">
    <path d="M50,74 C44,72 30,67 14,63 L14,57 C30,61 44,66 50,68 Z" fill="url(#lp)"/>
    <path d="M50,74 C56,72 70,67 86,63 L86,57 C70,61 56,66 50,68 Z" fill="url(#rp)"/>
    <path d="M50,76 C44,74 28,72 14,71 L14,63 C30,67 44,72 50,74 Z" fill="#D97706" opacity="0.55"/>
    <path d="M50,76 C56,74 72,72 86,71 L86,63 C70,67 56,72 50,74 Z" fill="#D97706" opacity="0.55"/>
    <rect x="48.5" y="57" width="3" height="21" rx="1.5" fill="#78350F"/>
    <path d="M50,22 C52,27 58,32 58,40 C58,46 56,49 54,52 C56,47 55,43 53,41 C52,47 50,51 50,55 C50,51 48,47 47,41 C45,43 44,47 46,52 C44,49 42,46 42,40 C42,32 48,27 50,22 Z" fill="url(#fl)"/>
    <path d="M50,13 L51.2,18.5 L50,20 L48.8,18.5 Z" fill="#FFFFFF"/>
    <path d="M50,20 L51.2,21.5 L50,27 L48.8,21.5 Z" fill="#FFFDE7" opacity="0.85"/>
    <path d="M44,19 L48.5,18 L50,19 L48.5,20 Z" fill="#FFFFFF"/>
    <path d="M56,19 L51.5,18 L50,19 L51.5,20 Z" fill="#FFFFFF"/>
    <circle cx="50" cy="19.5" r="1.6" fill="#FFFFFF"/>
  </g>
</svg>
