<svg xmlns="http://www.w3.org/2000/svg" viewBox="0 0 100 100">
  <defs>
    <linearGradient id="bg" x1="0%" y1="0%" x2="100%" y2="100%">
      <stop offset="0%" style="stop-color:#1E1B4B"/>
      <stop offset="100%" style="stop-color:#4C1D95"/>
    </linearGradient>
    <linearGradient id="gold" x1="0%" y1="0%" x2="100%" y2="100%">
      <stop offset="0%" style="stop-color:#FBBF24"/>
      <stop offset="100%" style="stop-color:#F59E0B"/>
    </linearGradient>
  </defs>
  <rect width="100" height="100" rx="20" fill="url(#bg)"/>
  <g transform="translate(50,48)" fill="url(#gold)">
    <path d="M0-28c-2,0-4,1-5,3l-8,14c-1,2-1,4,0,6l8,14c1,2,3,3,5,3s4-1,5-3l8-14c1-2,1-4,0-6l-8-14c-1-2-3-3-5-3z" opacity="0.9"/>
    <path d="M-18,0c0-3-1-5-3-6h-6c-2,1-3,3-3,6s1,5,3,6h6c2-1,3-3,3-6z" opacity="0.7"/>
    <path d="M18,0c0-3,1-5,3-6h6c2,1,3,3,3,6s-1,5-3,6h-6c-2-1-3-3-3-6z" opacity="0.7"/>
    <circle cx="0" cy="0" r="6" fill="#FBBF24"/>
  </g>
  <text x="50" y="85" text-anchor="middle" font-family="serif" font-size="14" font-weight="bold" fill="#FBBF24">PJ</text>
</svg>
