<svg xmlns="http://www.w3.org/2000/svg" width="192" height="192" viewBox="0 0 192 192">
  <defs>
    <linearGradient id="bg" x1="0" y1="0" x2="192" y2="192" gradientUnits="userSpaceOnUse">
      <stop offset="0%" stop-color="#0F2044"/>
      <stop offset="100%" stop-color="#0A1628"/>
    </linearGradient>
    <linearGradient id="gold" x1="96" y1="38" x2="96" y2="163" gradientUnits="userSpaceOnUse">
      <stop offset="0%"   stop-color="#FFF7AE"/>
      <stop offset="28%"  stop-color="#FBBF24"/>
      <stop offset="72%"  stop-color="#D97706"/>
      <stop offset="100%" stop-color="#B45309"/>
    </linearGradient>
    <radialGradient id="glow" cx="50%" cy="56%" r="36%">
      <stop offset="0%"   stop-color="#FBBF24" stop-opacity="0.28"/>
      <stop offset="100%" stop-color="#FBBF24" stop-opacity="0"/>
    </radialGradient>
    <linearGradient id="ray" x1="0" y1="1" x2="0" y2="0" gradientUnits="objectBoundingBox">
      <stop offset="0%"   stop-color="#FFF7AE" stop-opacity="0.5"/>
      <stop offset="100%" stop-color="#FFF7AE" stop-opacity="0"/>
    </linearGradient>
    <clipPath id="clip">
      <rect width="192" height="192" rx="42"/>
    </clipPath>
  </defs>

  <!-- Background -->
  <rect width="192" height="192" rx="42" fill="url(#bg)"/>

  <g clip-path="url(#clip)">
    <!-- Glow -->
    <ellipse cx="96" cy="115" rx="58" ry="54" fill="url(#glow)"/>

    <!-- Light rays -->
    <polygon points="96,42  91,11  101,11"  fill="url(#ray)" opacity="0.85"/>
    <polygon points="82,50  72,19  79,21"   fill="url(#ray)" opacity="0.55"/>
    <polygon points="110,50 113,19 120,21"  fill="url(#ray)" opacity="0.55"/>

    <!-- Left hand -->
    <path d="
      M96,163
      C88,163 77,160 71,154
      C65,148 61,138 61,130
      L61,111
      C61,106 63,102 67,102
      C67,93 67,85 67,85
      C67,79 70,77 73,77
      C73,71 73,64 73,58
      C73,52 76,50 79,50
      C79,44 80,42 83,42
      C86,42 87,44 87,50
      L87,77
      C89,77 91,79 91,85
      L91,77
      C91,71 93,69 95,69
      C97,69 99,71 99,77
      L99,85
      C99,79 101,77 104,77
      L96,163 Z
    " fill="url(#gold)"/>

    <!-- Right hand -->
    <path d="
      M96,163
      C104,163 115,160 121,154
      C127,148 131,138 131,130
      L131,111
      C131,106 129,102 125,102
      C125,93 125,85 125,85
      C125,79 122,77 119,77
      C119,71 119,64 119,58
      C119,52 116,50 113,50
      C113,44 112,42 109,42
      C106,42 105,44 105,50
      L105,77
      C103,77 101,79 101,85
      L101,77
      C101,71 99,69 97,69
      C95,69 93,71 93,77
      L93,85
      C93,79 91,77 88,77
      L96,163 Z
    " fill="url(#gold)"/>

    <!-- Finger lines — left -->
    <line x1="79"  y1="50" x2="79"  y2="102" stroke="#92400E" stroke-width="1.5" stroke-opacity="0.3"/>
    <line x1="87"  y1="50" x2="87"  y2="102" stroke="#92400E" stroke-width="1.5" stroke-opacity="0.3"/>

    <!-- Finger lines — right -->
    <line x1="113" y1="50" x2="113" y2="102" stroke="#92400E" stroke-width="1.5" stroke-opacity="0.3"/>
    <line x1="105" y1="50" x2="105" y2="102" stroke="#92400E" stroke-width="1.5" stroke-opacity="0.3"/>

    <!-- Centre seam -->
    <line x1="96" y1="42" x2="96" y2="163" stroke="#92400E" stroke-width="1" stroke-opacity="0.2"/>

    <!-- Wrist highlight -->
    <path d="M71,157 Q96,169 121,157" stroke="#FFF7AE" stroke-width="2" stroke-opacity="0.15" fill="none" stroke-linecap="round"/>
  </g>
</svg>
